<?xml version="1.0" encoding="UTF-8" standalone="no"?>
<svg width="361px" height="171px" viewBox="0 0 361 171" version="1.1" xmlns="http://www.w3.org/2000/svg" xmlns:xlink="http://www.w3.org/1999/xlink">
    <!-- Generator: Sketch 46 (44423) - http://www.bohemiancoding.com/sketch -->
    <title>Group 5</title>
    <desc>Created with Sketch.</desc>
    <defs>
        <path d="M247,61.5722274 L258.258069,68.4475906 L265.666417,57.9754744 L192.212258,13 L119,57.9754744 L126.27158,68.4475906 L137,61.8852412 L137,179 L247,179 L247,61.5722274 Z M0,0 L386,0 L386,181 L0,181 L0,0 Z" id="path-1"></path>
        <polygon id="path-3" points="38 87 345 87 345 179 38 179"></polygon>
        <filter x="-1.6%" y="-5.4%" width="103.3%" height="110.9%" filterUnits="objectBoundingBox" id="filter-4">
            <feOffset dx="0" dy="10" in="SourceAlpha" result="shadowOffsetInner1"></feOffset>
            <feComposite in="shadowOffsetInner1" in2="SourceAlpha" operator="arithmetic" k2="-1" k3="1" result="shadowInnerInner1"></feComposite>
            <feColorMatrix values="0 0 0 0 0   0 0 0 0 0   0 0 0 0 0  0 0 0 0.05 0" type="matrix" in="shadowInnerInner1"></feColorMatrix>
        </filter>
        <polygon id="path-5" points="137 60 192 25.4173446 247 60 247 179 137 179"></polygon>
        <filter x="-4.5%" y="-3.3%" width="109.1%" height="106.5%" filterUnits="objectBoundingBox" id="filter-6">
            <feOffset dx="0" dy="10" in="SourceAlpha" result="shadowOffsetInner1"></feOffset>
            <feComposite in="shadowOffsetInner1" in2="SourceAlpha" operator="arithmetic" k2="-1" k3="1" result="shadowInnerInner1"></feComposite>
            <feColorMatrix values="0 0 0 0 0   0 0 0 0 0   0 0 0 0 0  0 0 0 0.05 0" type="matrix" in="shadowInnerInner1"></feColorMatrix>
        </filter>
        <rect id="path-7" x="0" y="14" width="44" height="9"></rect>
        <rect id="path-8" x="3" y="7" width="38" height="9"></rect>
        <rect id="path-9" x="6" y="0" width="32" height="9"></rect>
        <polygon id="path-10" points="119 57.9754744 192.212258 13 265.666417 57.9754744 258.258069 68.4475906 192.212258 28.1130606 126.27158 68.4475906"></polygon>
    </defs>
    <g id="Mockups" stroke="none" stroke-width="1" fill="none" fill-rule="evenodd">
        <g id="No-Results-Dark" transform="translate(-80.000000, -155.000000)">
            <g id="Group-5" transform="translate(68.000000, 147.000000)">
                <g id="Group-7">
                    <mask id="mask-2" fill="white">
                        <use xlink:href="#path-1"></use>
                    </mask>
                    <g id="Rectangle-3"></g>
                    <g id="Rectangle-11" mask="url(#mask-2)">
                        <use fill="black" fill-opacity="1" filter="url(#filter-4)" xlink:href="#path-3"></use>
                        <path stroke="#FFFFFF" stroke-width="2" d="M39,88 L39,178 L344,178 L344,88 L39,88 Z"></path>
                    </g>
                    <path d="M66.4391724,41 L33,77.3896876 L33,88.055899 L349.885099,88.055899 L349.995944,77.3852736 L316.560828,41 L66.4391724,41 Z" id="Rectangle-13" stroke="#F6F6F6" stroke-width="2" mask="url(#mask-2)"></path>
                    <rect id="Rectangle" stroke="#FFFFFF" stroke-width="2" mask="url(#mask-2)" x="33" y="78" width="317" height="10"></rect>
                    <g id="Group-6" mask="url(#mask-2)">
                        <g transform="translate(55.000000, 77.000000)">
                            <g id="Group" transform="translate(137.000000, 1.000000) rotate(90.000000) translate(-137.000000, -1.000000) translate(136.000000, -17.000000)" stroke-linecap="round" stroke-linejoin="round">
                                <path d="M1,0.5 L1,36" id="Line" stroke="#FFFFFF" stroke-width="2" fill="#D8D8D8"></path>
                            </g>
                            <g id="Group-4" transform="translate(41.000000, 25.000000)">
                                <g id="Group-2" transform="translate(3.000000, 0.000000)" stroke="#FFFFFF" stroke-width="2">
                                    <path d="M1,37 L19,37 L19,10 C19,5.02943725 14.9705627,1 10,1 C5.02943725,1 1,5.02943725 1,10 L1,37 Z" id="Rectangle-11"></path>
                                    <path d="M10,1 L10,36.5" id="Line" fill="#D8D8D8" stroke-linecap="round" stroke-linejoin="round"></path>
                                </g>
                                <rect id="Rectangle-2" stroke="#FFFFFF" stroke-width="2" x="1" y="37" width="24" height="6"></rect>
                            </g>
                            <g id="Group-4" transform="translate(0.000000, 25.000000)">
                                <g id="Group-2" transform="translate(3.000000, 0.000000)" stroke="#FFFFFF" stroke-width="2">
                                    <path d="M1,37 L19,37 L19,10 C19,5.02943725 14.9705627,1 10,1 C5.02943725,1 1,5.02943725 1,10 L1,37 Z" id="Rectangle-11"></path>
                                    <path d="M10,1 L10,36.5" id="Line" fill="#D8D8D8" stroke-linecap="round" stroke-linejoin="round"></path>
                                </g>
                                <rect id="Rectangle-2" stroke="#FFFFFF" stroke-width="2" x="1" y="37" width="24" height="6"></rect>
                            </g>
                            <g id="Group-4" transform="translate(248.000000, 25.000000)">
                                <g id="Group-2" transform="translate(3.000000, 0.000000)" stroke="#FFFFFF" stroke-width="2">
                                    <path d="M1,37 L19,37 L19,10 C19,5.02943725 14.9705627,1 10,1 C5.02943725,1 1,5.02943725 1,10 L1,37 Z" id="Rectangle-11"></path>
                                    <path d="M10,1 L10,36.5" id="Line" fill="#D8D8D8" stroke-linecap="round" stroke-linejoin="round"></path>
                                </g>
                                <rect id="Rectangle-2" stroke="#FFFFFF" stroke-width="2" x="1" y="37" width="24" height="6"></rect>
                            </g>
                            <g id="Group-4" transform="translate(207.000000, 25.000000)">
                                <g id="Group-2" transform="translate(3.000000, 0.000000)" stroke="#FFFFFF" stroke-width="2">
                                    <path d="M1,37 L19,37 L19,10 C19,5.02943725 14.9705627,1 10,1 C5.02943725,1 1,5.02943725 1,10 L1,37 Z" id="Rectangle-11"></path>
                                    <path d="M10,1 L10,36.5" id="Line" fill="#D8D8D8" stroke-linecap="round" stroke-linejoin="round"></path>
                                </g>
                                <rect id="Rectangle-2" stroke="#FFFFFF" stroke-width="2" x="1" y="37" width="24" height="6"></rect>
                            </g>
                        </g>
                    </g>
                </g>
                <g id="Rectangle-11">
                    <use fill-opacity="0" fill="#303841" fill-rule="evenodd" xlink:href="#path-5"></use>
                    <use fill="black" fill-opacity="1" filter="url(#filter-6)" xlink:href="#path-5"></use>
                    <path stroke="#FFFFFF" stroke-width="2" d="M138,60.5524775 L138,178 L246,178 L246,60.5524775 L192,26.5985976 L138,60.5524775 Z"></path>
                </g>
                <g id="Group-3" transform="translate(170.000000, 156.000000)">
                    <g id="Rectangle-11">
                        <use fill-opacity="0" fill="#FFFFFF" fill-rule="evenodd" xlink:href="#path-7"></use>
                        <rect stroke="#FFFFFF" stroke-width="2" x="1" y="15" width="42" height="7"></rect>
                    </g>
                    <g id="Rectangle-11">
                        <use fill-opacity="0" fill="#FFFFFF" fill-rule="evenodd" xlink:href="#path-8"></use>
                        <rect stroke="#FFFFFF" stroke-width="2" x="4" y="8" width="36" height="7"></rect>
                    </g>
                    <g id="Rectangle-11">
                        <use fill-opacity="0" fill="#FFFFFF" fill-rule="evenodd" xlink:href="#path-9"></use>
                        <rect stroke="#FFFFFF" stroke-width="2" x="7" y="1" width="30" height="7"></rect>
                    </g>
                </g>
                <rect id="Rectangle-11" stroke="#FFFFFF" stroke-width="2" x="181" y="117" width="22" height="40"></rect>
                <path d="M147,9 L147,41.8085483 L169,28.4420234 L169,9 L147,9 Z" id="Rectangle-11" stroke="#FFFFFF" stroke-width="2"></path>
                <rect id="Rectangle-11" stroke="#FFFFFF" stroke-width="2" x="174" y="60" width="36" height="36" rx="18"></rect>
                <path d="M13,178 L371.5,178" id="Line-2" stroke="#FFFFFF" stroke-width="2" stroke-linecap="square"></path>
                <path d="M192,60.5 L192,96" id="Line" stroke="#FFFFFF" stroke-width="2" fill="#D8D8D8" stroke-linecap="round" stroke-linejoin="round"></path>
                <g id="Rectangle-12">
                    <use fill-opacity="0" fill="#303841" fill-rule="evenodd" xlink:href="#path-10"></use>
                    <path stroke="#FFFFFF" stroke-width="2" d="M120.42466,58.2739028 L126.554765,67.1021306 L192.211843,26.9410727 L257.981534,67.1069747 L264.232906,58.2703082 L192.21312,14.1730905 L120.42466,58.2739028 Z"></path>
                </g>
            </g>
        </g>
    </g>
</svg>